subject01_walk1_states
version=1
nRows=4
nColumns=155
inDegrees=yes

# SIMM Motion File Header:
name subject01_walk1_states
datacolumns 155
datarows 4
otherdata 1
range 0.83000000000000007000 0.83178865645461619000
endheader
time	pelvis_tilt	pelvis_list	pelvis_rotation	pelvis_tx	pelvis_ty	pelvis_tz	hip_flexion_r	hip_adduction_r	hip_rotation_r	knee_angle_r	ankle_angle_r	subtalar_angle_r	mtp_angle_r	hip_flexion_l	hip_adduction_l	hip_rotation_l	knee_angle_l	ankle_angle_l	subtalar_angle_l	mtp_angle_l	lumbar_extension	lumbar_bending	lumbar_rotation	pelvis_tilt_u	pelvis_list_u	pelvis_rotation_u	pelvis_tx_u	pelvis_ty_u	pelvis_tz_u	hip_flexion_r_u	hip_adduction_r_u	hip_rotation_r_u	knee_angle_r_u	ankle_angle_r_u	subtalar_angle_r_u	mtp_angle_r_u	hip_flexion_l_u	hip_adduction_l_u	hip_rotation_l_u	knee_angle_l_u	ankle_angle_l_u	subtalar_angle_l_u	mtp_angle_l_u	lumbar_extension_u	lumbar_bending_u	lumbar_rotation_u	glut_med1_r.activation	glut_med1_r.fiber_length	glut_med2_r.activation	glut_med2_r.fiber_length	glut_med3_r.activation	glut_med3_r.fiber_length	bifemlh_r.activation	bifemlh_r.fiber_length	bifemsh_r.activation	bifemsh_r.fiber_length	sar_r.activation	sar_r.fiber_length	add_mag2_r.activation	add_mag2_r.fiber_length	tfl_r.activation	tfl_r.fiber_length	pect_r.activation	pect_r.fiber_length	grac_r.activation	grac_r.fiber_length	glut_max1_r.activation	glut_max1_r.fiber_length	glut_max2_r.activation	glut_max2_r.fiber_length	glut_max3_r.activation	glut_max3_r.fiber_length	iliacus_r.activation	iliacus_r.fiber_length	psoas_r.activation	psoas_r.fiber_length	quad_fem_r.activation	quad_fem_r.fiber_length	gem_r.activation	gem_r.fiber_length	peri_r.activation	peri_r.fiber_length	rect_fem_r.activation	rect_fem_r.fiber_length	vas_int_r.activation	vas_int_r.fiber_length	med_gas_r.activation	med_gas_r.fiber_length	soleus_r.activation	soleus_r.fiber_length	tib_post_r.activation	tib_post_r.fiber_length	tib_ant_r.activation	tib_ant_r.fiber_length	glut_med1_l.activation	glut_med1_l.fiber_length	glut_med2_l.activation	glut_med2_l.fiber_length	glut_med3_l.activation	glut_med3_l.fiber_length	bifemlh_l.activation	bifemlh_l.fiber_length	bifemsh_l.activation	bifemsh_l.fiber_length	sar_l.activation	sar_l.fiber_length	add_mag2_l.activation	add_mag2_l.fiber_length	tfl_l.activation	tfl_l.fiber_length	pect_l.activation	pect_l.fiber_length	grac_l.activation	grac_l.fiber_length	glut_max1_l.activation	glut_max1_l.fiber_length	glut_max2_l.activation	glut_max2_l.fiber_length	glut_max3_l.activation	glut_max3_l.fiber_length	iliacus_l.activation	iliacus_l.fiber_length	psoas_l.activation	psoas_l.fiber_length	quad_fem_l.activation	quad_fem_l.fiber_length	gem_l.activation	gem_l.fiber_length	peri_l.activation	peri_l.fiber_length	rect_fem_l.activation	rect_fem_l.fiber_length	vas_int_l.activation	vas_int_l.fiber_length	med_gas_l.activation	med_gas_l.fiber_length	soleus_l.activation	soleus_l.fiber_length	tib_post_l.activation	tib_post_l.fiber_length	tib_ant_l.activation	tib_ant_l.fiber_length	ercspn_r.activation	ercspn_r.fiber_length	ercspn_l.activation	ercspn_l.fiber_length	intobl_r.activation	intobl_r.fiber_length	intobl_l.activation	intobl_l.fiber_length	extobl_r.activation	extobl_r.fiber_length	extobl_l.activation	extobl_l.fiber_length
      0.83000000000000007000	      4.16610235748080000000	     -0.79181175186709252000	      3.66798520703029140000	      0.60541961854013460000	      1.02389199226718960000	      0.02432578946960182300	     14.51566689804963100000	      0.28413321155321625000	     -7.30098005325285280000	    -22.07853616969038100000	      3.66718002331484440000	      0.00119067033023038380	      0.00143053150782731830	     -0.66586963397753485000	     -4.74836062183688150000	     -2.91493563886494120000	    -59.36942349414135800000	     -7.53966343921289630000	     -0.00404596765144085450	      0.03617615894748098200	    -17.79595223894440900000	      3.97958296098442380000	     -4.65081179982571950000	      3.66465842041354510000	    -30.36184433526400300000	     -0.80511430242769255000	     -0.01530382146601911400	      0.16454988633536138000	      0.22345088426816040000	    -97.98514476575516600000	     54.70743371400603600000	     -9.71020137448820540000	     47.35660987441522700000	     41.84725788363789400000	      0.11699067851981221000	     -0.26206445724844646000	    181.57249796406524000000	    -80.91713692771388400000	    -73.58176360336695200000	   -255.85372356167252000000	    -28.59798544590880500000	     -0.05845575581347686700	      0.45801317338417263000	      0.68823393303971281000	     25.80853789865080800000	     35.69101333865414500000	      0.23283372963429938000	      0.05254421649521453400	      0.21885885206032182000	      0.08832036230416463700	      0.25054785691653370000	      0.06725181155622909900	      0.19586361246985179000	      0.10485989920291866000	      0.01999999999999999300	      0.17970253615903353000	      0.01999999999999999300	      0.50168729479456675000	      0.01999999999999999300	      0.08914283263540720400	      0.01999999999999999300	      0.11591523425130575000	      0.01999999999999999300	      0.07257587124728963300	      0.01999999999999999300	      0.34596052884789713000	      0.12387826322071727000	      0.09054165728453629500	      0.16605318664958277000	      0.10058512288986267000	      0.06320684710173073200	      0.11482310613976555000	      0.01999999999999999300	      0.10332022283259239000	      0.01999999999999999300	      0.09579304085365797400	      0.01999999999999999300	      0.04279760200329230100	      0.01999999999999999300	      0.02266378598220937500	      0.08635771176027019800	      0.02108466461246399200	      0.01999999999999999300	      0.12023041965673391000	      0.26032715015293001000	      0.09299990273416512700	      0.01999999999999999300	      0.08585916526460195300	      0.05162513169245150400	      0.04705036562746410500	      0.24442248353028281000	      0.03043496790389159000	      0.19169190811970202000	      0.07556393449393204700	      0.04971971688094382900	      0.04212309077643233000	      0.01999999999999999300	      0.07741607631953652300	      0.01999999999999999300	      0.05892907625694202000	      0.06169275830830692900	      0.07136197575021312200	      0.25419215581259830000	      0.16068874244003795000	      0.06345919244667080900	      0.50676488597326685000	      0.02869453979680786400	      0.08857021091493889900	      0.01999999999999999300	      0.12693214365106559000	      0.04948594372453944000	      0.08189142564695201000	      0.07931753047232779900	      0.32813360946077685000	      0.01999999999999999300	      0.07624389942875686700	      0.01999999999999999300	      0.08590330509132750000	      0.01999999999999999300	      0.09988954843751128600	      0.25627654427334856000	      0.11388657949059354000	      0.27166904014490806000	      0.10582562591235438000	      0.01999999999999999300	      0.05048974376347226800	      0.01999999999999999300	      0.02680170868063452800	      0.01999999999999999300	      0.01933434807895100000	      0.01999999999999999300	      0.16025090152980598000	      0.01999999999999999300	      0.12267348659851243000	      0.01999999999999999300	      0.06442634128709932900	      0.01999999999999999300	      0.04049111691405576900	      0.01999999999999999300	      0.03257311424194153000	      0.02203790457783946400	      0.08491210592865831900	      0.19452526965498756000	      0.13781568500933447000	      0.30793162657096879000	      0.14110658695697736000	      0.01999999999999999300	      0.07730275769811775800	      0.09641985187392423900	      0.09728866118923859600	      0.01999999999999999300	      0.11729089354825935000	      0.01999999999999999300	      0.11692063365163648000
      0.83057324555769940000	      4.16820929790494790000	     -0.80912806253741976000	      3.66749280584691210000	      0.60541073005837343000	      1.02398646292325250000	      0.02445381508832887900	     14.45943289242078600000	      0.31541487977611626000	     -7.30649328969735560000	    -22.05124026701544400000	      3.69110924584351090000	      0.00127495860584786390	      0.00106711645959158130	     -0.56194215323574037000	     -4.79456830281940420000	     -2.95691515202778500000	    -59.51546856857723400000	     -7.55561335651175180000	     -0.00417079865920124640	      0.03680530832656258400	    -17.79557520249016300000	      3.99425195085610610000	     -4.63033173078574480000	      3.67434091371134740000	    -30.05466980690743000000	     -0.91234342874163743000	     -0.01570973719067736400	      0.16502629707625160000	      0.22321707440582844000	    -98.19395175774312200000	     54.43212561568607600000	     -9.52445857306899410000	     47.86541161134946500000	     41.73640686032835800000	      0.19867763677052841000	     -1.34208692838774570000	    181.03670426096156000000	    -80.29698610278333600000	    -72.87987107648167800000	   -253.68975020641176000000	    -27.06594321039903800000	     -0.39551600219163019000	      1.78858107512794870000	      0.64074309331593071000	     25.37153364893223900000	     35.76135225557330000000	      0.23662798122347595000	      0.05255597049290516200	      0.22284573327875357000	      0.08831836230367702500	      0.25419068578796133000	      0.06724092945985316000	      0.19392312490940625000	      0.10483028572207352000	      0.01999999999999999300	      0.17971498223331056000	      0.01999999999999999300	      0.50176759947059280000	      0.01999999999999999300	      0.08907603804626769400	      0.02152838421026668000	      0.11595959508815075000	      0.01999999999999999300	      0.07257775501211349800	      0.01999999999999999300	      0.34592600741674290000	      0.12465474007612182000	      0.09050933313961158400	      0.16558701915234278000	      0.10053762983786955000	      0.06292508460230811200	      0.11472096518978399000	      0.01999999999999999300	      0.10336047249708691000	      0.01999999999999999300	      0.09583298573773219000	      0.01999999999999999300	      0.04276408841700942600	      0.02036457479736334500	      0.02265613202755737900	      0.08587474966924534000	      0.02108682451339040400	      0.02020497384814500000	      0.12026182574224428000	      0.26004106331331150000	      0.09298186533516211700	      0.02802953626526727400	      0.08587029292005470000	      0.05136459082639265700	      0.04707493863019696800	      0.24165903036923378000	      0.03046751927699769400	      0.18976855166563761000	      0.07554000996883333800	      0.05331122609724040600	      0.04213259361427326700	      0.01999999999999999300	      0.07741864231315330500	      0.01999999999999999300	      0.05892086222885324600	      0.06134036919330452400	      0.07141378494505572200	      0.25248690459394363000	      0.16061872959609397000	      0.06351886736160543300	      0.50660929988724801000	      0.02986740715313034000	      0.08864258895813340000	      0.01999999999999999300	      0.12685966201946428000	      0.04961898006153800400	      0.08187753269957402700	      0.07903489163322204000	      0.32808201408919335000	      0.01999999999999999300	      0.07629707659412873800	      0.01999999999999999300	      0.08598489307224010900	      0.01999999999999999300	      0.10003631625049578000	      0.25614170163052152000	      0.11381956249165566000	      0.27153506185535914000	      0.10575965258183204000	      0.01999999999999999300	      0.05047698153674370900	      0.02020497384814500000	      0.02677828975513355000	      0.01999999999999999300	      0.01930715628064631100	      0.01999999999999999300	      0.16026966032104936000	      0.01999999999999999300	      0.12277552561096729000	      0.01999999999999999300	      0.06435654589791160700	      0.01999999999999999300	      0.04046953058826446200	      0.01999999999999999300	      0.03256772257227707300	      0.02544314721566253600	      0.08492205051444294600	      0.19329382596593842000	      0.13780027807031514000	      0.30756930096238999000	      0.14111948550129588000	      0.01999999999999999300	      0.07728691103862660200	      0.09601337728849400300	      0.09730285708073552200	      0.01999999999999999300	      0.11725649954090307000	      0.01999999999999999300	      0.11695220886195523000
      0.83114649111539873000	      4.17031114204313890000	     -0.82626565309600031000	      3.66693327547671770000	      0.60540160861470060000	      1.02408118501199000000	      0.02458171123312099400	     14.40309576026398000000	      0.34653648924859420000	     -7.31189196344677140000	    -22.02366954471536400000	      3.71511757768920870000	      0.00143676611933831130	     -0.00040412258421801628	     -0.45831062016536306000	     -4.84041403937892150000	     -2.99849728365400910000	    -59.66027492271052100000	     -7.57070306901963970000	     -0.00451746522501425290	      0.03825077811136806700	    -17.79521371959016200000	      4.00866597741601090000	     -4.60980744029481660000	      3.65250245622071910000	    -29.73530120342974900000	     -1.04134398807932470000	     -0.01611504644172346800	      0.16543765222671816000	      0.22300064471697079000	    -98.35173153917291700000	     54.14650769100416700000	     -9.30771524006508950000	     48.31788592500409200000	     42.09472629213176700000	      0.37885284014726012000	     -4.02399419636090720000	    180.53136023778126000000	    -79.65062709237368200000	    -72.19609985266497200000	   -251.52820085152587000000	    -25.58330048045736800000	     -0.82158034321222184000	      3.25875665897673490000	      0.62735989494230704000	     24.91559039590107700000	     35.84654293135477600000	      0.24015343396918676000	      0.05256654188119638800	      0.22654221867990365000	      0.08831529613941688200	      0.25758370753768806000	      0.06722920524665188000	      0.19201150311598517000	      0.10480057891055676000	      0.01999999999999999300	      0.17972758481890833000	      0.01999999999999999300	      0.50184793088482893000	      0.01999999999999999300	      0.08900939180983721800	      0.02289512569024320500	      0.11598762650106792000	      0.01999999999999999300	      0.07257982798381640300	      0.01999999999999999300	      0.34589182313666444000	      0.12536789204798621000	      0.09047618443108120000	      0.16512625288316585000	      0.10049010552362590000	      0.06264590970309705200	      0.11461908608392210000	      0.01999999999999999300	      0.10340084115371467000	      0.01999999999999999300	      0.09587305005086826900	      0.01999999999999999300	      0.04273078057025450600	      0.02069149111835557100	      0.02264832585162921200	      0.08539666860979285000	      0.02108894814908845300	      0.02038884487558985400	      0.12029110523488329000	      0.25975873776680880000	      0.09296354358183528400	      0.03510340739795651100	      0.08587052433756722800	      0.05110636984556293800	      0.04709934253832515100	      0.23894250038689949000	      0.03049970365928808200	      0.18787363061551163000	      0.07551709788113071500	      0.05653611420434005700	      0.04213923776562032700	      0.01999999999999999300	      0.07742155745266118800	      0.01999999999999999300	      0.05891301934186334700	      0.06099126755240315300	      0.07146605884849073500	      0.25080785035928299000	      0.16055012459645976000	      0.06357305589519805800	      0.50645396042960511000	      0.03091989922703499900	      0.08870707131537650100	      0.01999999999999999300	      0.12678734445554815000	      0.04973934121599574200	      0.08186349114385681200	      0.07875493822760479300	      0.32803153637107768000	      0.01999999999999999300	      0.07635037922369138100	      0.01999999999999999300	      0.08606637762230511000	      0.01999999999999999300	      0.10018547216182042000	      0.25600858716161023000	      0.11375273702230888000	      0.27140284346367394000	      0.10569372319289538000	      0.01999999999999999300	      0.05046431931031718200	      0.02038884487558985400	      0.02675487298746236800	      0.01999999999999999300	      0.01928024576613304400	      0.01999999999999999300	      0.16028773632055310000	      0.01999999999999999300	      0.12287612403934942000	      0.01999999999999999300	      0.06428797652913080500	      0.01999999999999999300	      0.04044858379284285700	      0.01999999999999999300	      0.03256238667218289100	      0.02847690677979919400	      0.08492598445302411400	      0.19207906913465761000	      0.13778537690000922000	      0.30721213353606386000	      0.14113229597476060000	      0.01999999999999999300	      0.07727148117666043900	      0.09561101619926903900	      0.09731694775605093100	      0.01999999999999999300	      0.11722226612223330000	      0.01999999999999999300	      0.11698353665681981000
      0.83178865645461619000	      4.17264251178251570000	     -0.84524073582019388000	      3.66621275729487640000	      0.60539111467645390000	      1.02418755791202740000	      0.02472483945268167500	     14.33989170496523800000	      0.38120000423467332000	     -7.31778205791851640000	    -21.99249235990124500000	      3.74239110289901160000	      0.00176503472632210490	     -0.00433459618035041040	     -0.34255618644427710000	     -4.89132072644522610000	     -3.04461565135340440000	    -59.82102003313498500000	     -7.58659925290635060000	     -0.00521074552560865660	      0.04086497518809735500	    -17.79480909048961500000	      4.02449528504137530000	     -4.58675436311617620000	      3.61365255879650870000	    -29.35450607597678300000	     -1.21191467811218100000	     -0.01656358876202035700	      0.16586492085217905000	      0.22277515479366553000	    -98.49869150635788600000	     53.80615292386812600000	     -9.02479275798996380000	     48.77550173228572600000	     42.90820058052134600000	      0.65381161499014684000	     -8.41659648796734140000	    179.96979164347704000000	    -78.88557263132561600000	    -71.44646943247657600000	   -249.09846002200052000000	    -23.92343069463638700000	     -1.34910181416293870000	      4.87072123087118670000	      0.62629821870499292000	     24.37452560957081400000	     35.95802049091165700000	      0.24381061282659031000	      0.05257735715123794400	      0.23036850773494680000	      0.08831080645682265500	      0.26111226769478946000	      0.06721523495313831700	      0.18990361123410140000	      0.10476719217283156000	      0.01999999999999999300	      0.17974187997951510000	      0.01999999999999999300	      0.50193790980543207000	      0.01999999999999999300	      0.08893492594109121700	      0.02425655102821256500	      0.11601206203822588000	      0.01999999999999999300	      0.07258237458530095200	      0.01999999999999999300	      0.34585393104415629000	      0.12609815671779057000	      0.09043821486817728300	      0.16461641584478157000	      0.10043680996706003000	      0.06233620986370092700	      0.11450521177213492000	      0.01999999999999999300	      0.10344617982704972000	      0.01999999999999999300	      0.09591805286474321100	      0.01999999999999999300	      0.04269373176424700500	      0.02101785122690616500	      0.02263945953506474700	      0.08486683278809695200	      0.02109128316579363100	      0.02057245899410523400	      0.12032216463321861000	      0.25944687054015575000	      0.09294268857703279200	      0.04206959384763316000	      0.08586446931030787500	      0.05081982965547313800	      0.04712655290392702600	      0.23595372564101544000	      0.03053531672938538200	      0.18578395068416115000	      0.07549254573253318100	      0.05976569997699504600	      0.04214498253219511200	      0.01999999999999999300	      0.07742526466058941000	      0.01999999999999999300	      0.05890468090731661200	      0.06060405417895704100	      0.07152515724183795800	      0.24895739461348804000	      0.16047469787343768000	      0.06362786677227166800	      0.50628039090075816000	      0.03197190898010133400	      0.08877880574359581200	      0.01999999999999999300	      0.12670653296656997000	      0.04986061607944802800	      0.08184761689835364000	      0.07844448028381856300	      0.32797616930357398000	      0.01999999999999999300	      0.07641026211632213900	      0.01999999999999999300	      0.08615755674565843400	      0.01999999999999999300	      0.10047584337801563000	      0.25586149274626502000	      0.11367809606557820000	      0.27125678934975528000	      0.10561993010719527000	      0.01999999999999999300	      0.05045024105799100100	      0.02057245899410523400	      0.02672868285345486600	      0.01999999999999999300	      0.01925043923078033700	      0.01999999999999999300	      0.16030717844692174000	      0.01999999999999999300	      0.12298780282029079000	      0.01999999999999999300	      0.06421258786422119600	      0.01999999999999999300	      0.04042586428254318200	      0.01999999999999999300	      0.03255648049646511800	      0.03149050978064594400	      0.08492738231652986700	      0.19073772576225873000	      0.13776913777182787000	      0.30681805318817512000	      0.14114650922820532000	      0.01999999999999999300	      0.07725470599259080800	      0.09516510546711649800	      0.09733253774162595200	      0.01999999999999999300	      0.11718412187300037000	      0.01999999999999999300	      0.11701835817112345000
